<svg width="1312" height="232" viewBox="0 0 1312 232" fill="none" xmlns="http://www.w3.org/2000/svg">
<g clip-path="url(#clip0_20610_866)">
<path d="M146.654 94.2519C146.582 94.1801 146.485 94.1398 146.384 94.1398C146.283 94.1398 146.187 94.1801 146.115 94.2519C146.044 94.3237 146.004 94.421 146.004 94.5225C146.004 94.624 146.044 94.7214 146.115 94.7932L158.96 122.232C158.992 122.319 158.995 122.415 158.967 122.503C158.939 122.592 158.883 122.669 158.807 122.722C158.73 122.775 158.638 122.8 158.546 122.794C158.454 122.789 158.366 122.752 158.297 122.69L121.338 87.1735C121.26 87.0972 121.156 87.0546 121.048 87.0546C120.94 87.0546 120.835 87.0972 120.758 87.1735L105.552 101.663C105.485 101.717 105.403 101.749 105.317 101.754C105.231 101.759 105.146 101.737 105.074 101.691C105.001 101.645 104.944 101.578 104.911 101.499C104.878 101.419 104.87 101.331 104.889 101.247L109.529 85.9244C109.548 85.8403 109.541 85.7524 109.507 85.6728C109.474 85.5933 109.418 85.5259 109.345 85.4802C109.272 85.4345 109.187 85.4127 109.101 85.4177C109.016 85.4226 108.934 85.4541 108.867 85.5079L80.4431 113.03C80.3657 113.107 80.2615 113.149 80.1531 113.149C80.0446 113.149 79.9406 113.107 79.8631 113.03L65.2371 97.1249L70.9135 112.947L52.7241 95.4593C52.6591 95.4293 52.5885 95.4138 52.517 95.4138C52.4455 95.4138 52.3748 95.4293 52.3098 95.4593L0.352349 112.364C1.27561 124.921 4.61023 137.181 10.1721 148.464C24.7981 151.795 45.2662 150.254 70.9135 142.093C143.381 119.109 176.652 135.389 188.004 143.925C191.335 136.194 193.661 128.063 194.924 119.734L146.654 94.2519Z" fill="url(#paint0_linear_20610_866)"/>
<path d="M60.3478 74.8488C60.4162 74.7873 60.5047 74.7535 60.5964 74.7535C60.6881 74.7535 60.7767 74.7873 60.8451 74.8488L75.7197 90.921C75.7545 90.9575 75.7963 90.9865 75.8426 91.0064C75.8889 91.0262 75.9387 91.0364 75.989 91.0364C76.0393 91.0364 76.0891 91.0262 76.1354 91.0064C76.1817 90.9865 76.2235 90.9575 76.2583 90.921L121.006 56.1537C121.075 56.0922 121.163 56.0584 121.255 56.0584C121.347 56.0584 121.435 56.0922 121.504 56.1537L195.338 111.906C195.802 108.135 196.037 104.339 196.042 100.539C196.31 87.4345 193.974 74.4078 189.169 62.2221C184.363 50.0365 177.187 38.937 168.059 29.5738C158.931 20.2107 148.036 12.7721 136.012 7.6939C123.987 2.61572 111.075 0 98.0315 0C84.9882 0 72.0761 2.61572 60.0515 7.6939C48.0269 12.7721 37.1317 20.2107 28.004 29.5738C18.8763 38.937 11.6997 50.0365 6.89464 62.2221C2.08958 74.4078 -0.247419 87.4345 0.0207175 100.539C0.0207175 102.455 0.0207175 104.37 0.0207175 106.285L60.3478 74.8488Z" fill="url(#paint1_linear_20610_866)"/>
<path d="M162.317 157.166C146.596 158.884 131.172 162.692 116.45 168.491C91.5898 177.818 72.489 178.526 59.9761 173.155C73.8741 173.183 87.6423 170.467 100.498 165.16C139.653 150.462 165.258 151.836 181.128 156.833C183.407 153.148 185.455 149.324 187.26 145.382C139.363 124.272 80.4443 156.874 39.0937 163.62C32.8874 164.844 26.5364 165.153 20.2414 164.536C29.6811 176.92 41.9136 186.873 55.9311 193.575C69.9486 200.277 85.3501 203.537 100.867 203.086C116.384 202.635 131.572 198.485 145.18 190.979C158.788 183.473 170.427 172.826 179.139 159.914C173.803 157.759 168.057 156.82 162.317 157.166Z" fill="url(#paint2_linear_20610_866)"/>
<path d="M347.441 149.296H289.848L280.319 176.985H249.865L301.864 31.4628H335.632L387.631 176.985H356.971L347.441 149.296ZM339.569 125.98L318.645 65.1891L297.721 125.98H339.569Z" fill="url(#paint3_linear_20610_866)"/>
<path d="M429.856 22.9272V176.985H400.853V22.9272H429.856Z" fill="url(#paint4_linear_20610_866)"/>
<path d="M481.3 78.3048C485.029 73.0307 490.139 68.6588 496.63 65.1891C503.26 61.5805 510.787 59.7762 519.212 59.7762C529.018 59.7762 537.857 62.205 545.729 67.0627C553.739 71.9204 560.023 78.86 564.581 87.8814C569.277 96.764 571.625 107.104 571.625 118.901C571.625 130.698 569.277 141.177 564.581 150.337C560.023 159.359 553.739 166.368 545.729 171.364C537.857 176.361 529.018 178.859 519.212 178.859C510.787 178.859 503.329 177.124 496.838 173.654C490.484 170.184 485.305 165.813 481.3 160.538V231.946H452.297V61.6499H481.3V78.3048ZM542 118.901C542 111.962 540.55 105.994 537.649 100.997C534.887 95.8619 531.158 91.9757 526.462 89.3387C521.905 86.7017 516.933 85.3831 511.546 85.3831C506.298 85.3831 501.326 86.7711 496.63 89.5469C492.073 92.1839 488.344 96.07 485.443 101.205C482.681 106.341 481.3 112.378 481.3 119.318C481.3 126.257 482.681 132.294 485.443 137.43C488.344 142.565 492.073 146.521 496.63 149.296C501.326 151.933 506.298 153.252 511.546 153.252C516.933 153.252 521.905 151.864 526.462 149.088C531.158 146.312 534.887 142.357 537.649 137.222C540.55 132.086 542 125.98 542 118.901Z" fill="url(#paint5_linear_20610_866)"/>
<path d="M601.195 47.9096C596.085 47.9096 591.803 46.3135 588.35 43.1213C585.036 39.7903 583.378 35.696 583.378 30.8383C583.378 25.9806 585.036 21.9556 588.35 18.7635C591.803 15.4325 596.085 13.767 601.195 13.767C606.305 13.767 610.517 15.4325 613.832 18.7635C617.285 21.9556 619.011 25.9806 619.011 30.8383C619.011 35.696 617.285 39.7903 613.832 43.1213C610.517 46.3135 606.305 47.9096 601.195 47.9096ZM615.489 61.6499V176.985H586.486V61.6499H615.489Z" fill="url(#paint6_linear_20610_866)"/>
<path d="M701.53 59.9844C715.203 59.9844 726.252 64.3563 734.677 73.1001C743.102 81.7052 747.314 93.78 747.314 109.325V176.985H718.31V113.28C718.31 104.12 716.032 97.111 711.474 92.2533C706.916 87.2568 700.701 84.7586 692.829 84.7586C684.819 84.7586 678.465 87.2568 673.77 92.2533C669.212 97.111 666.933 104.12 666.933 113.28V176.985H637.93V61.6499H666.933V76.0148C670.8 71.0183 675.703 67.1321 681.642 64.3563C687.719 61.4417 694.348 59.9844 701.53 59.9844Z" fill="url(#paint7_linear_20610_866)"/>
<path d="M875.371 116.819C875.371 120.983 875.095 124.73 874.542 128.061H790.639C791.33 136.389 794.23 142.912 799.34 147.631C804.451 152.35 810.735 154.709 818.193 154.709C828.965 154.709 836.63 150.06 841.188 140.761H872.47C869.156 151.864 862.803 161.024 853.411 168.241C844.019 175.32 832.487 178.859 818.814 178.859C807.765 178.859 797.821 176.43 788.982 171.572C780.281 166.576 773.445 159.567 768.472 150.546C763.639 141.524 761.222 131.115 761.222 119.318C761.222 107.382 763.639 96.9028 768.472 87.8814C773.306 78.86 780.074 71.9204 788.775 67.0627C797.476 62.205 807.489 59.7762 818.814 59.7762C829.725 59.7762 839.462 62.1356 848.025 66.8545C856.726 71.5734 863.424 78.3048 868.12 87.0486C872.954 95.6537 875.371 105.577 875.371 116.819ZM845.332 108.492C845.193 100.997 842.5 95.0291 837.252 90.5878C832.004 86.0077 825.582 83.7176 817.985 83.7176C810.804 83.7176 804.727 85.9383 799.755 90.3796C794.921 94.6821 791.951 100.72 790.847 108.492H845.332Z" fill="url(#paint8_linear_20610_866)"/>
<path d="M1091.13 31.671V176.985H1062.13V82.4685L1023.39 176.985H1001.43L962.478 82.4685V176.985H933.475V31.671H966.414L1012.41 139.72L1058.4 31.671H1091.13Z" fill="url(#paint9_linear_20610_866)"/>
<path d="M1106.13 118.901C1106.13 107.243 1108.41 96.9028 1112.97 87.8814C1117.66 78.86 1123.95 71.9204 1131.82 67.0627C1139.83 62.205 1148.74 59.7762 1158.54 59.7762C1167.11 59.7762 1174.56 61.5111 1180.92 64.9809C1187.41 68.4506 1192.59 72.8226 1196.46 78.0966V61.6499H1225.67V176.985H1196.46V160.122C1192.73 165.535 1187.55 170.046 1180.92 173.654C1174.43 177.124 1166.9 178.859 1158.34 178.859C1148.67 178.859 1139.83 176.361 1131.82 171.364C1123.95 166.368 1117.66 159.359 1112.97 150.337C1108.41 141.177 1106.13 130.698 1106.13 118.901ZM1196.46 119.318C1196.46 112.239 1195.07 106.202 1192.31 101.205C1189.55 96.07 1185.82 92.1839 1181.13 89.5469C1176.43 86.7711 1171.39 85.3831 1166 85.3831C1160.62 85.3831 1155.64 86.7017 1151.09 89.3387C1146.53 91.9757 1142.8 95.8619 1139.9 100.997C1137.14 105.994 1135.76 111.962 1135.76 118.901C1135.76 125.841 1137.14 131.948 1139.9 137.222C1142.8 142.357 1146.53 146.312 1151.09 149.088C1155.78 151.864 1160.75 153.252 1166 153.252C1171.39 153.252 1176.43 151.933 1181.13 149.296C1185.82 146.521 1189.55 142.634 1192.31 137.638C1195.07 132.503 1196.46 126.396 1196.46 119.318Z" fill="url(#paint10_linear_20610_866)"/>
<path d="M1276.78 79.5539C1280.51 73.4471 1285.34 68.6588 1291.28 65.1891C1297.36 61.7193 1304.27 59.9844 1312 59.9844V90.5878H1304.33C1295.22 90.5878 1288.31 92.7391 1283.62 97.0416C1279.06 101.344 1276.78 108.839 1276.78 119.526V176.985H1247.78V61.6499H1276.78V79.5539Z" fill="url(#paint11_linear_20610_866)"/>
<path d="M565.661 264.898C565.661 260.934 566.57 257.379 568.387 254.231C570.244 251.083 572.738 248.635 575.87 246.886C579.041 245.098 582.502 244.204 586.253 244.204C590.546 244.204 594.355 245.273 597.681 247.411C601.045 249.509 603.481 252.501 604.99 256.388H597.043C595.999 254.25 594.548 252.657 592.692 251.608C590.836 250.558 588.69 250.034 586.253 250.034C583.585 250.034 581.207 250.636 579.119 251.841C577.03 253.045 575.387 254.775 574.188 257.029C573.028 259.283 572.448 261.906 572.448 264.898C572.448 267.891 573.028 270.514 574.188 272.768C575.387 275.022 577.03 276.77 579.119 278.014C581.207 279.219 583.585 279.821 586.253 279.821C588.69 279.821 590.836 279.296 592.692 278.247C594.548 277.198 595.999 275.605 597.043 273.467H604.99C603.481 277.353 601.045 280.346 597.681 282.444C594.355 284.543 590.546 285.592 586.253 285.592C582.464 285.592 579.003 284.718 575.87 282.969C572.738 281.181 570.244 278.713 568.387 275.566C566.57 272.418 565.661 268.862 565.661 264.898Z" fill="url(#paint12_linear_20610_866)"/>
<path d="M655.423 256.796C655.423 258.855 654.94 260.798 653.973 262.625C653.006 264.451 651.459 265.947 649.332 267.113C647.205 268.24 644.479 268.804 641.153 268.804H633.844V285.242H627.232V244.729H641.153C644.247 244.729 646.857 245.273 648.984 246.361C651.15 247.411 652.755 248.848 653.799 250.675C654.882 252.501 655.423 254.542 655.423 256.796ZM641.153 263.383C643.667 263.383 645.542 262.819 646.78 261.692C648.017 260.526 648.636 258.894 648.636 256.796C648.636 252.365 646.142 250.15 641.153 250.15H633.844V263.383H641.153Z" fill="url(#paint13_linear_20610_866)"/>
<path d="M700.536 276.965H683.656L680.756 285.242H673.853L688.297 244.671H695.954L710.397 285.242H703.437L700.536 276.965ZM698.68 271.544L692.125 252.715L685.513 271.544H698.68Z" fill="url(#paint14_linear_20610_866)"/>
<path d="M742.781 285.767C740.267 285.767 738.005 285.32 735.994 284.426C734.022 283.493 732.456 282.25 731.295 280.695C730.135 279.102 729.516 277.334 729.439 275.391H736.284C736.4 276.751 737.038 277.897 738.198 278.83C739.397 279.724 740.886 280.171 742.665 280.171C744.521 280.171 745.952 279.821 746.957 279.122C748.001 278.383 748.523 277.45 748.523 276.323C748.523 275.119 747.943 274.225 746.783 273.642C745.662 273.059 743.864 272.418 741.389 271.718C738.991 271.058 737.038 270.417 735.53 269.795C734.022 269.173 732.707 268.221 731.585 266.938C730.503 265.656 729.961 263.966 729.961 261.867C729.961 260.157 730.464 258.603 731.469 257.204C732.475 255.766 733.906 254.639 735.762 253.823C737.657 253.007 739.822 252.599 742.259 252.599C745.894 252.599 748.813 253.531 751.018 255.397C753.261 257.223 754.459 259.73 754.614 262.916H748.001C747.885 261.478 747.305 260.332 746.261 259.477C745.217 258.622 743.805 258.195 742.027 258.195C740.286 258.195 738.952 258.525 738.024 259.186C737.096 259.846 736.632 260.721 736.632 261.809C736.632 262.664 736.941 263.383 737.56 263.966C738.179 264.548 738.933 265.015 739.822 265.365C740.712 265.675 742.027 266.083 743.767 266.589C746.087 267.21 747.982 267.852 749.451 268.512C750.96 269.134 752.255 270.067 753.338 271.31C754.421 272.554 754.981 274.206 755.02 276.265C755.02 278.092 754.517 279.724 753.512 281.162C752.507 282.6 751.076 283.727 749.219 284.543C747.402 285.359 745.256 285.767 742.781 285.767Z" fill="url(#paint15_linear_20610_866)"/>
<path d="M837.387 285.242L832.398 280.229C830.464 282.172 828.357 283.629 826.075 284.601C823.794 285.534 821.241 286 818.418 286C815.557 286 813.024 285.495 810.82 284.484C808.615 283.474 806.914 282.036 805.715 280.171C804.516 278.267 803.917 276.071 803.917 273.584C803.917 270.786 804.709 268.299 806.295 266.122C807.881 263.907 810.24 262.158 813.372 260.876C812.25 259.516 811.458 258.253 810.994 257.087C810.529 255.882 810.297 254.561 810.297 253.123C810.297 251.336 810.742 249.742 811.632 248.343C812.56 246.944 813.875 245.837 815.576 245.021C817.278 244.204 819.25 243.796 821.493 243.796C823.774 243.796 825.708 244.243 827.293 245.137C828.918 245.992 830.116 247.177 830.89 248.693C831.702 250.209 832.031 251.899 831.876 253.764H825.263C825.302 252.327 824.954 251.219 824.219 250.442C823.484 249.626 822.479 249.218 821.203 249.218C819.927 249.218 818.883 249.606 818.07 250.383C817.297 251.122 816.91 252.035 816.91 253.123C816.91 254.172 817.2 255.222 817.78 256.271C818.399 257.281 819.463 258.603 820.971 260.235L831.644 270.902L835.762 264.082H842.897L837.677 273.059L836.227 275.449L846.03 285.242H837.387ZM818.418 280.346C822.054 280.346 825.263 278.849 828.047 275.857L817.374 265.073C812.811 266.9 810.529 269.659 810.529 273.351C810.529 275.333 811.264 277.004 812.734 278.364C814.203 279.685 816.098 280.346 818.418 280.346Z" fill="url(#paint16_linear_20610_866)"/>
<path d="M918.742 276.965H901.862L898.961 285.242H892.058L906.502 244.671H914.159L928.603 285.242H921.642L918.742 276.965ZM916.885 271.544L910.331 252.715L903.718 271.544H916.885Z" fill="url(#paint17_linear_20610_866)"/>
<path d="M962.552 244.729C966.845 244.729 970.596 245.565 973.806 247.236C977.054 248.868 979.548 251.238 981.288 254.347C983.067 257.417 983.957 261.012 983.957 265.131C983.957 269.251 983.067 272.826 981.288 275.857C979.548 278.888 977.054 281.22 973.806 282.852C970.596 284.446 966.845 285.242 962.552 285.242H949.385V244.729H962.552ZM962.552 279.821C967.27 279.821 970.886 278.539 973.399 275.974C975.913 273.409 977.17 269.795 977.17 265.131C977.17 260.429 975.913 256.757 973.399 254.114C970.886 251.472 967.27 250.15 962.552 250.15H955.997V279.821H962.552Z" fill="url(#paint18_linear_20610_866)"/>
<path d="M1039.76 244.729L1024.62 285.242H1016.96L1001.76 244.729H1008.84L1020.79 278.422L1032.8 244.729H1039.76Z" fill="url(#paint19_linear_20610_866)"/>
<path d="M1066.4 244.729V285.242H1059.79V244.729H1066.4Z" fill="url(#paint20_linear_20610_866)"/>
<path d="M1102.87 285.65C1100.16 285.65 1097.73 285.184 1095.56 284.251C1093.4 283.28 1091.69 281.92 1090.46 280.171C1089.22 278.422 1088.6 276.382 1088.6 274.05H1095.68C1095.83 275.799 1096.51 277.237 1097.71 278.364C1098.95 279.491 1100.67 280.054 1102.87 280.054C1105.15 280.054 1106.93 279.51 1108.21 278.422C1109.48 277.295 1110.12 275.857 1110.12 274.108C1110.12 272.748 1109.71 271.641 1108.9 270.786C1108.13 269.931 1107.14 269.27 1105.94 268.804C1104.78 268.337 1103.16 267.832 1101.07 267.288C1098.44 266.589 1096.3 265.889 1094.63 265.19C1093.01 264.451 1091.62 263.324 1090.46 261.809C1089.3 260.293 1088.72 258.272 1088.72 255.746C1088.72 253.415 1089.3 251.374 1090.46 249.626C1091.62 247.877 1093.24 246.536 1095.33 245.603C1097.42 244.671 1099.83 244.204 1102.58 244.204C1106.49 244.204 1109.68 245.195 1112.15 247.177C1114.66 249.12 1116.06 251.802 1116.33 255.222H1109.02C1108.9 253.745 1108.21 252.482 1106.93 251.433C1105.65 250.383 1103.97 249.859 1101.88 249.859C1099.99 249.859 1098.44 250.345 1097.24 251.316C1096.04 252.288 1095.45 253.687 1095.45 255.513C1095.45 256.757 1095.81 257.787 1096.55 258.603C1097.32 259.38 1098.29 260.002 1099.45 260.468C1100.61 260.934 1102.19 261.44 1104.2 261.984C1106.87 262.722 1109.04 263.46 1110.7 264.199C1112.4 264.937 1113.83 266.083 1114.99 267.638C1116.19 269.154 1116.79 271.194 1116.79 273.759C1116.79 275.818 1116.23 277.761 1115.11 279.588C1114.03 281.414 1112.42 282.891 1110.3 284.018C1108.21 285.106 1105.73 285.65 1102.87 285.65Z" fill="url(#paint21_linear_20610_866)"/>
<path d="M1157.48 285.65C1153.73 285.65 1150.27 284.776 1147.1 283.027C1143.97 281.239 1141.47 278.772 1139.62 275.624C1137.8 272.437 1136.89 268.862 1136.89 264.898C1136.89 260.934 1137.8 257.379 1139.62 254.231C1141.47 251.083 1143.97 248.635 1147.1 246.886C1150.27 245.098 1153.73 244.204 1157.48 244.204C1161.27 244.204 1164.74 245.098 1167.87 246.886C1171.04 248.635 1173.53 251.083 1175.35 254.231C1177.17 257.379 1178.08 260.934 1178.08 264.898C1178.08 268.862 1177.17 272.437 1175.35 275.624C1173.53 278.772 1171.04 281.239 1167.87 283.027C1164.74 284.776 1161.27 285.65 1157.48 285.65ZM1157.48 279.879C1160.15 279.879 1162.53 279.277 1164.62 278.072C1166.71 276.829 1168.33 275.08 1169.49 272.826C1170.69 270.533 1171.29 267.891 1171.29 264.898C1171.29 261.906 1170.69 259.283 1169.49 257.029C1168.33 254.775 1166.71 253.045 1164.62 251.841C1162.53 250.636 1160.15 250.034 1157.48 250.034C1154.82 250.034 1152.44 250.636 1150.35 251.841C1148.26 253.045 1146.62 254.775 1145.42 257.029C1144.26 259.283 1143.68 261.906 1143.68 264.898C1143.68 267.891 1144.26 270.533 1145.42 272.826C1146.62 275.08 1148.26 276.829 1150.35 278.072C1152.44 279.277 1154.82 279.879 1157.48 279.879Z" fill="url(#paint22_linear_20610_866)"/>
<path d="M1220.03 285.242L1210.75 269.037H1205.7V285.242H1199.09V244.729H1213.01C1216.1 244.729 1218.71 245.273 1220.84 246.361C1223 247.449 1224.61 248.907 1225.65 250.733C1226.74 252.56 1227.28 254.6 1227.28 256.854C1227.28 259.496 1226.5 261.906 1224.96 264.082C1223.45 266.22 1221.11 267.677 1217.94 268.454L1227.92 285.242H1220.03ZM1205.7 263.732H1213.01C1215.48 263.732 1217.34 263.111 1218.58 261.867C1219.85 260.623 1220.49 258.952 1220.49 256.854C1220.49 254.755 1219.87 253.123 1218.63 251.957C1217.4 250.753 1215.52 250.15 1213.01 250.15H1205.7V263.732Z" fill="url(#paint23_linear_20610_866)"/>
<path d="M1263.52 285.65C1260.81 285.65 1258.38 285.184 1256.21 284.251C1254.05 283.28 1252.35 281.92 1251.11 280.171C1249.87 278.422 1249.25 276.382 1249.25 274.05H1256.33C1256.48 275.799 1257.16 277.237 1258.36 278.364C1259.6 279.491 1261.32 280.054 1263.52 280.054C1265.8 280.054 1267.58 279.51 1268.86 278.422C1270.13 277.295 1270.77 275.857 1270.77 274.108C1270.77 272.748 1270.37 271.641 1269.55 270.786C1268.78 269.931 1267.8 269.27 1266.6 268.804C1265.44 268.337 1263.81 267.832 1261.72 267.288C1259.09 266.589 1256.95 265.889 1255.28 265.19C1253.66 264.451 1252.27 263.324 1251.11 261.809C1249.95 260.293 1249.37 258.272 1249.37 255.746C1249.37 253.415 1249.95 251.374 1251.11 249.626C1252.27 247.877 1253.89 246.536 1255.98 245.603C1258.07 244.671 1260.49 244.204 1263.23 244.204C1267.14 244.204 1270.33 245.195 1272.8 247.177C1275.32 249.12 1276.71 251.802 1276.98 255.222H1269.67C1269.55 253.745 1268.86 252.482 1267.58 251.433C1266.31 250.383 1264.62 249.859 1262.54 249.859C1260.64 249.859 1259.09 250.345 1257.9 251.316C1256.7 252.288 1256.1 253.687 1256.1 255.513C1256.1 256.757 1256.46 257.787 1257.2 258.603C1257.97 259.38 1258.94 260.002 1260.1 260.468C1261.26 260.934 1262.85 261.44 1264.86 261.984C1267.52 262.722 1269.69 263.46 1271.35 264.199C1273.05 264.937 1274.49 266.083 1275.65 267.638C1276.84 269.154 1277.44 271.194 1277.44 273.759C1277.44 275.818 1276.88 277.761 1275.76 279.588C1274.68 281.414 1273.07 282.891 1270.95 284.018C1268.86 285.106 1266.38 285.65 1263.52 285.65Z" fill="url(#paint24_linear_20610_866)"/>
</g>
<defs>
<linearGradient id="paint0_linear_20610_866" x1="656" y1="20" x2="656" y2="210" gradientUnits="userSpaceOnUse">
<stop stop-color="#12122D"/>
<stop offset="0.481218" stop-color="#12122D" stop-opacity="0.395724"/>
<stop offset="0.710548" stop-color="#12122D" stop-opacity="0.186772"/>
<stop offset="1" stop-color="#12122D" stop-opacity="0"/>
</linearGradient>
<linearGradient id="paint1_linear_20610_866" x1="656" y1="20" x2="656" y2="210" gradientUnits="userSpaceOnUse">
<stop stop-color="#12122D"/>
<stop offset="0.481218" stop-color="#12122D" stop-opacity="0.395724"/>
<stop offset="0.710548" stop-color="#12122D" stop-opacity="0.186772"/>
<stop offset="1" stop-color="#12122D" stop-opacity="0"/>
</linearGradient>
<linearGradient id="paint2_linear_20610_866" x1="656" y1="20" x2="656" y2="210" gradientUnits="userSpaceOnUse">
<stop stop-color="#12122D"/>
<stop offset="0.481218" stop-color="#12122D" stop-opacity="0.395724"/>
<stop offset="0.710548" stop-color="#12122D" stop-opacity="0.186772"/>
<stop offset="1" stop-color="#12122D" stop-opacity="0"/>
</linearGradient>
<linearGradient id="paint3_linear_20610_866" x1="656" y1="20" x2="656" y2="210" gradientUnits="userSpaceOnUse">
<stop stop-color="#12122D"/>
<stop offset="0.481218" stop-color="#12122D" stop-opacity="0.395724"/>
<stop offset="0.710548" stop-color="#12122D" stop-opacity="0.186772"/>
<stop offset="1" stop-color="#12122D" stop-opacity="0"/>
</linearGradient>
<linearGradient id="paint4_linear_20610_866" x1="656" y1="20" x2="656" y2="210" gradientUnits="userSpaceOnUse">
<stop stop-color="#12122D"/>
<stop offset="0.481218" stop-color="#12122D" stop-opacity="0.395724"/>
<stop offset="0.710548" stop-color="#12122D" stop-opacity="0.186772"/>
<stop offset="1" stop-color="#12122D" stop-opacity="0"/>
</linearGradient>
<linearGradient id="paint5_linear_20610_866" x1="656" y1="20" x2="656" y2="210" gradientUnits="userSpaceOnUse">
<stop stop-color="#12122D"/>
<stop offset="0.481218" stop-color="#12122D" stop-opacity="0.395724"/>
<stop offset="0.710548" stop-color="#12122D" stop-opacity="0.186772"/>
<stop offset="1" stop-color="#12122D" stop-opacity="0"/>
</linearGradient>
<linearGradient id="paint6_linear_20610_866" x1="656" y1="20" x2="656" y2="210" gradientUnits="userSpaceOnUse">
<stop stop-color="#12122D"/>
<stop offset="0.481218" stop-color="#12122D" stop-opacity="0.395724"/>
<stop offset="0.710548" stop-color="#12122D" stop-opacity="0.186772"/>
<stop offset="1" stop-color="#12122D" stop-opacity="0"/>
</linearGradient>
<linearGradient id="paint7_linear_20610_866" x1="656" y1="20" x2="656" y2="210" gradientUnits="userSpaceOnUse">
<stop stop-color="#12122D"/>
<stop offset="0.481218" stop-color="#12122D" stop-opacity="0.395724"/>
<stop offset="0.710548" stop-color="#12122D" stop-opacity="0.186772"/>
<stop offset="1" stop-color="#12122D" stop-opacity="0"/>
</linearGradient>
<linearGradient id="paint8_linear_20610_866" x1="656" y1="20" x2="656" y2="210" gradientUnits="userSpaceOnUse">
<stop stop-color="#12122D"/>
<stop offset="0.481218" stop-color="#12122D" stop-opacity="0.395724"/>
<stop offset="0.710548" stop-color="#12122D" stop-opacity="0.186772"/>
<stop offset="1" stop-color="#12122D" stop-opacity="0"/>
</linearGradient>
<linearGradient id="paint9_linear_20610_866" x1="656" y1="20" x2="656" y2="210" gradientUnits="userSpaceOnUse">
<stop stop-color="#12122D"/>
<stop offset="0.481218" stop-color="#12122D" stop-opacity="0.395724"/>
<stop offset="0.710548" stop-color="#12122D" stop-opacity="0.186772"/>
<stop offset="1" stop-color="#12122D" stop-opacity="0"/>
</linearGradient>
<linearGradient id="paint10_linear_20610_866" x1="656" y1="20" x2="656" y2="210" gradientUnits="userSpaceOnUse">
<stop stop-color="#12122D"/>
<stop offset="0.481218" stop-color="#12122D" stop-opacity="0.395724"/>
<stop offset="0.710548" stop-color="#12122D" stop-opacity="0.186772"/>
<stop offset="1" stop-color="#12122D" stop-opacity="0"/>
</linearGradient>
<linearGradient id="paint11_linear_20610_866" x1="656" y1="20" x2="656" y2="210" gradientUnits="userSpaceOnUse">
<stop stop-color="#12122D"/>
<stop offset="0.481218" stop-color="#12122D" stop-opacity="0.395724"/>
<stop offset="0.710548" stop-color="#12122D" stop-opacity="0.186772"/>
<stop offset="1" stop-color="#12122D" stop-opacity="0"/>
</linearGradient>
<linearGradient id="paint12_linear_20610_866" x1="656" y1="20" x2="656" y2="210" gradientUnits="userSpaceOnUse">
<stop stop-color="#12122D"/>
<stop offset="0.481218" stop-color="#12122D" stop-opacity="0.395724"/>
<stop offset="0.710548" stop-color="#12122D" stop-opacity="0.186772"/>
<stop offset="1" stop-color="#12122D" stop-opacity="0"/>
</linearGradient>
<linearGradient id="paint13_linear_20610_866" x1="656" y1="20" x2="656" y2="210" gradientUnits="userSpaceOnUse">
<stop stop-color="#12122D"/>
<stop offset="0.481218" stop-color="#12122D" stop-opacity="0.395724"/>
<stop offset="0.710548" stop-color="#12122D" stop-opacity="0.186772"/>
<stop offset="1" stop-color="#12122D" stop-opacity="0"/>
</linearGradient>
<linearGradient id="paint14_linear_20610_866" x1="656" y1="20" x2="656" y2="210" gradientUnits="userSpaceOnUse">
<stop stop-color="#12122D"/>
<stop offset="0.481218" stop-color="#12122D" stop-opacity="0.395724"/>
<stop offset="0.710548" stop-color="#12122D" stop-opacity="0.186772"/>
<stop offset="1" stop-color="#12122D" stop-opacity="0"/>
</linearGradient>
<linearGradient id="paint15_linear_20610_866" x1="656" y1="20" x2="656" y2="210" gradientUnits="userSpaceOnUse">
<stop stop-color="#12122D"/>
<stop offset="0.481218" stop-color="#12122D" stop-opacity="0.395724"/>
<stop offset="0.710548" stop-color="#12122D" stop-opacity="0.186772"/>
<stop offset="1" stop-color="#12122D" stop-opacity="0"/>
</linearGradient>
<linearGradient id="paint16_linear_20610_866" x1="656" y1="20" x2="656" y2="210" gradientUnits="userSpaceOnUse">
<stop stop-color="#12122D"/>
<stop offset="0.481218" stop-color="#12122D" stop-opacity="0.395724"/>
<stop offset="0.710548" stop-color="#12122D" stop-opacity="0.186772"/>
<stop offset="1" stop-color="#12122D" stop-opacity="0"/>
</linearGradient>
<linearGradient id="paint17_linear_20610_866" x1="656" y1="20" x2="656" y2="210" gradientUnits="userSpaceOnUse">
<stop stop-color="#12122D"/>
<stop offset="0.481218" stop-color="#12122D" stop-opacity="0.395724"/>
<stop offset="0.710548" stop-color="#12122D" stop-opacity="0.186772"/>
<stop offset="1" stop-color="#12122D" stop-opacity="0"/>
</linearGradient>
<linearGradient id="paint18_linear_20610_866" x1="656" y1="20" x2="656" y2="210" gradientUnits="userSpaceOnUse">
<stop stop-color="#12122D"/>
<stop offset="0.481218" stop-color="#12122D" stop-opacity="0.395724"/>
<stop offset="0.710548" stop-color="#12122D" stop-opacity="0.186772"/>
<stop offset="1" stop-color="#12122D" stop-opacity="0"/>
</linearGradient>
<linearGradient id="paint19_linear_20610_866" x1="656" y1="20" x2="656" y2="210" gradientUnits="userSpaceOnUse">
<stop stop-color="#12122D"/>
<stop offset="0.481218" stop-color="#12122D" stop-opacity="0.395724"/>
<stop offset="0.710548" stop-color="#12122D" stop-opacity="0.186772"/>
<stop offset="1" stop-color="#12122D" stop-opacity="0"/>
</linearGradient>
<linearGradient id="paint20_linear_20610_866" x1="656" y1="20" x2="656" y2="210" gradientUnits="userSpaceOnUse">
<stop stop-color="#12122D"/>
<stop offset="0.481218" stop-color="#12122D" stop-opacity="0.395724"/>
<stop offset="0.710548" stop-color="#12122D" stop-opacity="0.186772"/>
<stop offset="1" stop-color="#12122D" stop-opacity="0"/>
</linearGradient>
<linearGradient id="paint21_linear_20610_866" x1="656" y1="20" x2="656" y2="210" gradientUnits="userSpaceOnUse">
<stop stop-color="#12122D"/>
<stop offset="0.481218" stop-color="#12122D" stop-opacity="0.395724"/>
<stop offset="0.710548" stop-color="#12122D" stop-opacity="0.186772"/>
<stop offset="1" stop-color="#12122D" stop-opacity="0"/>
</linearGradient>
<linearGradient id="paint22_linear_20610_866" x1="656" y1="20" x2="656" y2="210" gradientUnits="userSpaceOnUse">
<stop stop-color="#12122D"/>
<stop offset="0.481218" stop-color="#12122D" stop-opacity="0.395724"/>
<stop offset="0.710548" stop-color="#12122D" stop-opacity="0.186772"/>
<stop offset="1" stop-color="#12122D" stop-opacity="0"/>
</linearGradient>
<linearGradient id="paint23_linear_20610_866" x1="656" y1="20" x2="656" y2="210" gradientUnits="userSpaceOnUse">
<stop stop-color="#12122D"/>
<stop offset="0.481218" stop-color="#12122D" stop-opacity="0.395724"/>
<stop offset="0.710548" stop-color="#12122D" stop-opacity="0.186772"/>
<stop offset="1" stop-color="#12122D" stop-opacity="0"/>
</linearGradient>
<linearGradient id="paint24_linear_20610_866" x1="656" y1="20" x2="656" y2="210" gradientUnits="userSpaceOnUse">
<stop stop-color="#12122D"/>
<stop offset="0.481218" stop-color="#12122D" stop-opacity="0.395724"/>
<stop offset="0.710548" stop-color="#12122D" stop-opacity="0.186772"/>
<stop offset="1" stop-color="#12122D" stop-opacity="0"/>
</linearGradient>
<clipPath id="clip0_20610_866">
<rect width="1312" height="232" fill="white"/>
</clipPath>
</defs>
</svg>
