<svg width="48" height="48" viewBox="0 0 48 48" fill="none" xmlns="http://www.w3.org/2000/svg">
<path d="M19.0335 31.1154L23.999 28.1039L28.9645 31.1154L27.645 25.4654L32.0375 21.6959L26.2645 21.1844L23.999 15.8844L21.7335 21.1844L15.9605 21.6959L20.353 25.4654L19.0335 31.1154ZM23.999 43.8309L18.145 37.9999H9.99897V29.8539L4.16797 23.9999L9.99897 18.1459V9.99995H18.145L23.999 4.16895L29.853 9.99995H37.999V18.1459L43.83 23.9999L37.999 29.8539V37.9999H29.853L23.999 43.8309ZM23.999 40.9999L28.999 35.9999H35.999V28.9999L40.999 23.9999L35.999 18.9999V11.9999H28.999L23.999 6.99995L18.999 11.9999H11.999V18.9999L6.99897 23.9999L11.999 28.9999V35.9999H18.999L23.999 40.9999Z" fill="#12122D"/>
</svg>
