<svg width="48" height="48" viewBox="0 0 48 48" fill="none" xmlns="http://www.w3.org/2000/svg">
<path d="M18.346 43.3884C16.8127 43.3884 15.4698 42.9242 14.3175 41.9959C13.1648 41.0679 12.3705 39.8782 11.9345 38.4269C11.5295 39.1012 10.97 39.6172 10.256 39.9749C9.54167 40.3326 8.78967 40.5114 8 40.5114C6.60767 40.5114 5.42633 40.0242 4.456 39.0499C3.48533 38.0756 3 36.8961 3 35.5114C3 34.2831 3.42817 33.1646 4.2845 32.1559C5.14083 31.1469 6.22167 30.6359 7.527 30.6229C6.855 30.0076 6.3235 29.2672 5.9325 28.4019C5.5415 27.5366 5.346 26.6359 5.346 25.6999C5.346 24.5972 5.61717 23.5587 6.1595 22.5844C6.70183 21.6101 7.4615 20.8076 8.4385 20.1769C8.52817 20.4692 8.65067 20.7839 8.806 21.1209C8.961 21.4582 9.11933 21.7616 9.281 22.0309C8.66033 22.4999 8.191 23.0569 7.873 23.7019C7.555 24.3466 7.396 25.0292 7.396 25.7499C7.396 27.8216 8.16267 29.1574 9.696 29.7574C11.2293 30.3574 12.8077 30.8164 14.431 31.1344L14.881 31.9269C14.5143 32.9936 14.2168 33.8954 13.9885 34.6324C13.7602 35.3697 13.646 36.0512 13.646 36.6769C13.646 37.9332 14.1005 39.0262 15.0095 39.9559C15.9185 40.8852 17.0178 41.3499 18.3075 41.3499C19.7282 41.3499 20.8937 40.8152 21.804 39.7459C22.714 38.6769 23.4613 37.4077 24.046 35.9384C24.6307 34.4691 25.084 32.9576 25.406 31.4039C25.7277 29.8499 25.9975 28.5794 26.2155 27.5924L28.1925 28.1424C27.9182 29.4627 27.5898 30.9999 27.2075 32.7539C26.8255 34.5076 26.2813 36.1697 25.575 37.7404C24.8687 39.3107 23.9443 40.6447 22.802 41.7424C21.6597 42.8397 20.1743 43.3884 18.346 43.3884ZM8 38.5114C8.823 38.5114 9.52883 38.2172 10.1175 37.6289C10.7058 37.0402 11 36.3344 11 35.5114C11 34.6884 10.7058 33.9826 10.1175 33.3939C9.52883 32.8056 8.823 32.5114 8 32.5114C7.177 32.5114 6.47117 32.8056 5.8825 33.3939C5.29417 33.9826 5 34.6884 5 35.5114C5 36.3344 5.29417 37.0402 5.8825 37.6289C6.47117 38.2172 7.177 38.5114 8 38.5114ZM20.1615 30.2654C18.8078 29.0524 17.57 27.9184 16.448 26.8634C15.3263 25.8084 14.3603 24.7737 13.55 23.7594C12.7397 22.7454 12.1122 21.7314 11.6675 20.7174C11.2225 19.7031 11 18.6472 11 17.5499C11 15.6652 11.6455 14.0774 12.9365 12.7864C14.2275 11.4954 15.8153 10.8499 17.7 10.8499C18.064 10.8499 18.3922 10.8711 18.6845 10.9134C18.9768 10.9557 19.2538 11.0154 19.5155 11.0924C19.3565 10.7847 19.2308 10.4706 19.1385 10.1499C19.0462 9.82923 19 9.48556 19 9.1189C19 7.73456 19.4872 6.55506 20.4615 5.5804C21.4358 4.60606 22.6153 4.1189 24 4.1189C25.3847 4.1189 26.5642 4.60606 27.5385 5.5804C28.5128 6.55506 29 7.73456 29 9.1189C29 9.48556 28.9538 9.82723 28.8615 10.1439C28.7692 10.4606 28.6435 10.7729 28.4845 11.0809C28.7462 11.0039 29.0232 10.9461 29.3155 10.9074C29.6078 10.8691 29.936 10.8499 30.3 10.8499C31.8127 10.8499 33.1345 11.2801 34.2655 12.1404C35.3962 13.0007 36.1718 14.0987 36.5925 15.4344C36.2745 15.3857 35.92 15.3614 35.529 15.3614C35.138 15.3614 34.7797 15.3819 34.454 15.4229C34.0923 14.6562 33.5455 14.0357 32.8135 13.5614C32.0815 13.0871 31.2437 12.8499 30.3 12.8499C29.0563 12.8499 28.0647 13.1724 27.325 13.8174C26.5853 14.4621 25.6232 15.4729 24.4385 16.8499H23.5115C22.2935 15.4319 21.3147 14.4107 20.575 13.7864C19.8353 13.1621 18.877 12.8499 17.7 12.8499C16.3513 12.8499 15.2308 13.2961 14.3385 14.1884C13.4462 15.0807 13 16.2012 13 17.5499C13 18.3166 13.1975 19.1146 13.5925 19.9439C13.9872 20.7736 14.557 21.6467 15.302 22.5634C16.0467 23.4801 16.9453 24.4551 17.998 25.4884C19.0507 26.5217 20.2475 27.6384 21.5885 28.8384L20.1615 30.2654ZM26.1175 11.2364C26.7058 10.6481 27 9.94223 27 9.1189C27 8.2959 26.7058 7.59023 26.1175 7.0019C25.5288 6.41323 24.823 6.1189 24 6.1189C23.177 6.1189 22.4712 6.41323 21.8825 7.0019C21.2942 7.59023 21 8.2959 21 9.1189C21 9.94223 21.2942 10.6481 21.8825 11.2364C22.4712 11.8247 23.177 12.1189 24 12.1189C24.823 12.1189 25.5288 11.8247 26.1175 11.2364ZM29.527 43.4269C29.05 43.4269 28.5813 43.3782 28.121 43.2809C27.661 43.1832 27.213 43.0204 26.777 42.7924C26.964 42.5564 27.1512 42.2756 27.3385 41.9499C27.5255 41.6242 27.6922 41.3229 27.8385 41.0459C28.1282 41.1769 28.4243 41.2667 28.727 41.3154C29.0297 41.3641 29.3258 41.3884 29.6155 41.3884C30.9128 41.3884 32.0223 40.9236 32.944 39.9939C33.866 39.0646 34.327 37.9551 34.327 36.6654C34.327 36.0321 34.2128 35.3551 33.9845 34.6344C33.7565 33.9141 33.4592 33.0206 33.0925 31.9539L33.581 31.1614C35.2373 30.8434 36.8238 30.3781 38.3405 29.7654C39.8572 29.1524 40.6155 27.8101 40.6155 25.7384C40.6155 24.1231 40.0468 22.9256 38.9095 22.1459C37.7725 21.3666 36.4923 20.9769 35.069 20.9769C33.7203 20.9769 32.1512 21.2051 30.3615 21.6614C28.5718 22.1177 26.5038 22.7369 24.1575 23.5189L23.6075 21.5424C25.8998 20.8114 27.9602 20.1882 29.7885 19.6729C31.6168 19.1576 33.304 18.8999 34.85 18.8999C36.868 18.8999 38.6667 19.4936 40.246 20.6809C41.8257 21.8679 42.6155 23.5537 42.6155 25.7384C42.6155 26.6744 42.4263 27.5557 42.048 28.3824C41.67 29.2094 41.145 29.9562 40.473 30.6229C41.7783 30.6616 42.8592 31.1726 43.7155 32.1559C44.5718 33.1392 45 34.2577 45 35.5114C45 36.8704 44.5147 38.0436 43.544 39.0309C42.5737 40.0179 41.3923 40.5114 40 40.5114C39.2103 40.5114 38.4583 40.3326 37.744 39.9749C37.03 39.6172 36.4705 39.1012 36.0655 38.4269C35.6295 39.8782 34.8223 41.0744 33.644 42.0154C32.466 42.9564 31.0937 43.4269 29.527 43.4269ZM42.1425 37.6289C42.7142 37.0402 43 36.3344 43 35.5114C43 34.6884 42.7058 33.9742 42.1175 33.3689C41.5288 32.7639 40.823 32.4614 40 32.4614C39.177 32.4614 38.4712 32.7556 37.8825 33.3439C37.2942 33.9326 37 34.6384 37 35.4614C37 36.2844 37.3025 36.9986 37.9075 37.6039C38.5128 38.2089 39.227 38.5114 40.05 38.5114C40.873 38.5114 41.5705 38.2172 42.1425 37.6289Z" fill="#12122D"/>
</svg>
