<svg width="48" height="48" viewBox="0 0 48 48" fill="none" xmlns="http://www.w3.org/2000/svg">
<path d="M21.598 41.3825C20.9173 40.7658 20.5128 39.9973 20.3845 39.077H27.6155C27.4872 39.9973 27.0827 40.7658 26.402 41.3825C25.7213 41.9992 24.9207 42.3075 24 42.3075C23.0793 42.3075 22.2787 41.9992 21.598 41.3825ZM17 35.5385V33.5385H31V35.5385H17ZM17.1155 30C15.2258 28.7617 13.7342 27.1912 12.6405 25.2885C11.5468 23.3858 11 21.2897 11 19C11 15.3717 12.2597 12.298 14.779 9.779C17.298 7.25967 20.3717 6 24 6C27.6283 6 30.702 7.25967 33.221 9.779C35.7403 12.298 37 15.3717 37 19C37 21.2897 36.4532 23.3858 35.3595 25.2885C34.2658 27.1912 32.7742 28.7617 30.8845 30H17.1155ZM17.7 28H30.3C31.8 26.9333 32.9583 25.6167 33.775 24.05C34.5917 22.4833 35 20.8 35 19C35 15.9333 33.9333 13.3333 31.8 11.2C29.6667 9.06667 27.0667 8 24 8C20.9333 8 18.3333 9.06667 16.2 11.2C14.0667 13.3333 13 15.9333 13 19C13 20.8 13.4083 22.4833 14.225 24.05C15.0417 25.6167 16.2 26.9333 17.7 28Z" fill="#12122D"/>
</svg>
