<svg width="48" height="48" viewBox="0 0 48 48" fill="none" xmlns="http://www.w3.org/2000/svg">
<path d="M23.4057 39.8844C23.6671 39.8844 23.9349 39.8254 24.2092 39.7074C24.4836 39.5898 24.7054 39.4463 24.8747 39.2769L40.4672 23.6844C40.9696 23.1821 41.3574 22.6681 41.6307 22.1424C41.9037 21.6168 42.0402 21.0398 42.0402 20.4114C42.0402 19.7754 41.9037 19.1581 41.6307 18.5594C41.3574 17.9608 40.9696 17.4139 40.4672 16.9189L32.9672 9.41893C32.4722 8.91659 31.9639 8.54809 31.4422 8.31343C30.9202 8.07876 30.3414 7.96143 29.7057 7.96143C29.0774 7.96143 28.4941 8.07876 27.9557 8.31343C27.4171 8.54809 26.9094 8.91659 26.4327 9.41893L24.6902 11.1614L28.3902 14.8729C28.7876 15.2626 29.0837 15.7063 29.2787 16.2039C29.4734 16.7013 29.5707 17.2063 29.5707 17.7189C29.5707 18.7603 29.2304 19.6213 28.5497 20.3019C27.8691 20.9826 27.0082 21.3229 25.9672 21.3229C25.4542 21.3229 24.9536 21.2448 24.4652 21.0884C23.9769 20.9321 23.5377 20.6589 23.1477 20.2689L19.3207 16.4539L10.6862 25.0884C10.4839 25.2911 10.3321 25.5213 10.2307 25.7789C10.1294 26.0366 10.0787 26.2961 10.0787 26.5574C10.0787 27.0294 10.2301 27.4186 10.5327 27.7249C10.8351 28.0313 11.2222 28.1844 11.6942 28.1844C11.9556 28.1844 12.2234 28.1254 12.4977 28.0074C12.7721 27.8898 12.9939 27.7463 13.1632 27.5769L19.5017 21.2384L20.9172 22.6539L14.5902 28.9924C14.3876 29.1948 14.2356 29.4248 14.1342 29.6824C14.0332 29.9401 13.9827 30.1998 13.9827 30.4614C13.9827 30.9078 14.1404 31.2886 14.4557 31.6039C14.7711 31.9193 15.1517 32.0769 15.5977 32.0769C15.8594 32.0769 16.1274 32.0179 16.4017 31.8999C16.6761 31.7819 16.8979 31.6383 17.0672 31.4689L23.8672 24.6809L25.2827 26.0959L18.4942 32.8959C18.3172 33.0653 18.1717 33.2871 18.0577 33.5614C17.9434 33.8358 17.8862 34.1038 17.8862 34.3654C17.8862 34.8114 18.0439 35.1921 18.3592 35.5074C18.6749 35.8231 19.0557 35.9809 19.5017 35.9809C19.7634 35.9809 20.0231 35.9303 20.2807 35.8289C20.5384 35.7276 20.7684 35.5756 20.9707 35.3729L27.7707 28.5844L29.1862 29.9999L22.3862 36.7999C22.1839 37.0026 22.0321 37.2456 21.9307 37.5289C21.8294 37.8123 21.7787 38.0718 21.7787 38.3074C21.7787 38.7794 21.9447 39.1603 22.2767 39.4499C22.6087 39.7396 22.9851 39.8844 23.4057 39.8844ZM23.3942 41.8844C22.3659 41.8844 21.4857 41.5083 20.7537 40.7559C20.0217 40.0033 19.7006 39.0743 19.7902 37.9689C18.6569 37.9819 17.7132 37.6436 16.9592 36.9539C16.2056 36.2639 15.8479 35.3011 15.8862 34.0654C14.6506 34.0781 13.6769 33.7249 12.9652 33.0059C12.2536 32.2866 11.9299 31.3384 11.9942 30.1614C10.8812 30.1744 9.95039 29.8616 9.20172 29.2229C8.45305 28.5846 8.07872 27.6961 8.07872 26.5574C8.07872 26.0448 8.17805 25.5314 8.37672 25.0174C8.57539 24.5031 8.86955 24.0511 9.25922 23.6614L19.3207 13.6114L24.4862 18.7769C24.6556 18.9539 24.8646 19.0994 25.1132 19.2134C25.3619 19.3274 25.6427 19.3844 25.9557 19.3844C26.3837 19.3844 26.7619 19.2351 27.0902 18.9364C27.4186 18.6378 27.5827 18.2486 27.5827 17.7689C27.5827 17.4563 27.5256 17.1756 27.4112 16.9269C27.2972 16.6783 27.1517 16.4693 26.9747 16.2999L20.0942 9.41893C19.5992 8.91659 19.0844 8.54809 18.5497 8.31343C18.0151 8.07876 17.4299 7.96143 16.7942 7.96143C16.1659 7.96143 15.5954 8.07876 15.0827 8.31343C14.5697 8.54809 14.0619 8.91659 13.5592 9.41893L7.47072 15.5189C7.04272 15.9473 6.69672 16.4576 6.43272 17.0499C6.16839 17.6423 6.02855 18.2538 6.01322 18.8844C5.99789 19.3358 6.03639 19.7698 6.12872 20.1864C6.22105 20.6031 6.36722 20.9948 6.56722 21.3614L5.05172 22.8769C4.71572 22.3409 4.45289 21.7236 4.26322 21.0249C4.07355 20.3263 3.98639 19.6128 4.00172 18.8844C4.01705 17.9768 4.19905 17.1069 4.54772 16.2749C4.89639 15.4429 5.39522 14.7026 6.04422 14.0539L12.0942 8.00393C12.7916 7.31393 13.5294 6.80109 14.3077 6.46543C15.0857 6.12943 15.9274 5.96143 16.8327 5.96143C17.7377 5.96143 18.5729 6.12943 19.3382 6.46543C20.1036 6.80109 20.8311 7.31393 21.5207 8.00393L23.2632 9.74593L25.0057 8.00393C25.7031 7.31393 26.4344 6.80109 27.1997 6.46543C27.9651 6.12943 28.8004 5.96143 29.7057 5.96143C30.6107 5.96143 31.4524 6.12943 32.2307 6.46543C33.0087 6.80109 33.7427 7.31393 34.4327 8.00393L41.8827 15.4539C42.5724 16.1436 43.1044 16.9179 43.4787 17.7769C43.8531 18.6359 44.0402 19.5179 44.0402 20.4229C44.0402 21.3283 43.8531 22.1636 43.4787 22.9289C43.1044 23.6943 42.5724 24.4218 41.8827 25.1114L26.2902 40.6924C25.8749 41.1078 25.4229 41.4103 24.9342 41.5999C24.4459 41.7896 23.9326 41.8844 23.3942 41.8844Z" fill="#12122D"/>
</svg>
